<svg width="79" height="48" viewBox="0 0 79 48" fill="none" xmlns="http://www.w3.org/2000/svg">
<path d="M30.7516 22.9779L31.2338 12.8516C30.3911 12.7831 29.1589 12.6978 27.5372 12.5959C24.7482 12.4115 22.5758 13.0177 21.02 14.4147C19.4656 15.7791 18.6446 17.4839 18.5571 19.5291C18.4626 21.7365 18.8752 23.4941 19.7949 24.8018C20.7146 26.1095 22.0009 26.8313 23.6537 26.9671C27.4138 27.2581 29.7798 25.9283 30.7516 22.9779ZM37.195 9.2041L36.1531 34.2442C36.0267 37.1983 34.7543 40.0737 32.3928 41.0903C30.0312 42.1068 26.3848 42.6945 21.3313 42.4783C19.6432 42.406 18.5725 42.1594 17.0945 41.7384C15.649 41.3188 14.6093 40.9166 13.9753 40.5317L13.0751 39.9078L13.3064 34.5028C13.6213 34.7439 14.0315 35.0379 14.537 35.3847C15.075 35.733 15.6152 36.2171 17.1822 36.837C18.7479 37.4894 20.2442 37.8624 21.6712 37.956C24.5914 38.1135 26.7406 37.6689 28.1188 36.6221C29.5281 35.6092 30.2834 33.9178 30.3849 31.548L30.5182 28.4316C29.5648 29.4315 28.4426 30.1966 27.1515 30.7267C25.8619 31.2244 23.9976 31.4698 21.5588 31.463C18.7614 31.4734 16.5328 30.3536 14.8729 28.1036C13.213 25.8536 12.449 23.1866 12.581 20.1026C12.7491 16.1746 14.1267 13.2416 16.7138 11.3034C19.3348 9.33414 22.7737 8.39182 27.0305 8.47642C28.1681 8.49258 29.5795 8.56924 31.2648 8.70641C32.9839 8.8125 34.394 8.92162 35.4949 9.03378L37.195 9.2041Z" fill="white"/>
<path d="M60.6846 21.4295C60.7749 19.3194 60.2494 17.5407 59.108 16.0934C57.9991 14.6475 56.4545 13.8822 54.4743 13.7974C52.4616 13.7113 50.8234 14.3729 49.5598 15.7824C48.2975 17.1593 47.6213 18.9028 47.531 21.0129C47.4393 23.1554 47.9641 24.9503 49.1055 26.3976C50.2469 27.8449 51.8239 28.6117 53.8366 28.6978C55.8168 28.7825 57.4218 28.1357 58.6516 26.7574C59.9152 25.348 60.5929 23.572 60.6846 21.4295ZM63.7824 12.8786C66.3229 15.0688 67.4795 18.0615 67.252 21.8569C67.0246 25.6522 65.5686 28.5169 62.884 30.4509C60.2334 32.3538 57.1226 33.2289 53.5517 33.0761C50.0782 32.9274 47.1368 31.7446 44.7274 29.5275C42.352 27.2794 41.2413 24.3537 41.3955 20.7503C41.5567 16.9847 42.916 14.0996 45.4734 12.0951C48.0309 10.0906 51.0626 9.16338 54.5686 9.31342C58.1719 9.46762 61.2432 10.656 63.7824 12.8786Z" fill="white"/>
<path d="M45.1564 48.0001C65.6079 35.4982 70.6441 24.6275 69.2268 0.462939C81.874 30.3251 79.5778 41.8037 45.1564 48.0001Z" fill="#FF011A"/>
<path d="M33.6794 0C12.0779 10.3892 5.97748 20.7004 4.96576 44.8853C-4.62477 13.906 -1.1897 2.71528 33.6794 0Z" fill="#FF011A"/>
</svg>
