<svg width="149" height="48" viewBox="0 0 149 48" fill="none" xmlns="http://www.w3.org/2000/svg">
<path d="M115.492 48.0001C135.944 35.4982 140.98 24.6275 139.563 0.462939C152.21 30.3251 149.914 41.8037 115.492 48.0001Z" fill="#FF011A"/>
<path d="M18.168 33.663L18.8445 22.5825L19.0311 16.1442C19.0622 14.8223 19.0777 13.4927 19.0777 12.1553C19.0777 11.922 19.0622 11.1833 19.0311 9.93917C20.4774 9.97027 21.5426 9.98582 22.2269 9.98582C23.02 9.98582 24.0698 9.97027 25.3761 9.93917L25.2594 13.2283C25.8504 12.3885 26.3558 11.7665 26.7757 11.3621C27.1956 10.9422 27.6622 10.5846 28.1754 10.2891C28.7041 9.9936 29.2873 9.7681 29.9249 9.61259C30.5625 9.45707 31.2157 9.37931 31.8844 9.37931C32.5064 9.37931 33.1441 9.45707 33.7972 9.61259C33.7972 11.0589 33.8672 12.8939 34.0072 15.1178C33.0896 14.869 32.2576 14.7446 31.5111 14.7446C30.6092 14.7446 29.8083 14.8845 29.1084 15.1645C28.4242 15.4288 27.8021 15.841 27.2423 16.4008C26.698 16.9451 26.247 17.6216 25.8893 18.4303C25.5938 19.0834 25.3761 19.931 25.2361 20.9729C25.1117 21.7816 25.0028 23.1657 24.9095 25.1252C24.8318 27.0847 24.7929 29.0131 24.7929 30.9103C24.7929 31.6413 24.8162 32.5588 24.8629 33.663C23.681 33.6319 22.6001 33.6163 21.6204 33.6163C20.6562 33.6163 19.5054 33.6319 18.168 33.663Z" fill="white"/>
<path d="M56.0299 28.3677C55.8278 29.2852 55.5401 30.9337 55.1668 33.3131C53.4873 33.6707 52.0721 33.9118 50.9213 34.0362C49.7705 34.1606 48.6119 34.2228 47.4455 34.2228C45.4083 34.2228 43.581 34.0206 41.9636 33.6163C40.3618 33.212 38.9544 32.4733 37.7414 31.4002C36.5284 30.3116 35.6342 28.982 35.0588 27.4113C34.4833 25.8406 34.1956 24.1921 34.1956 22.4659C34.1956 20.5531 34.53 18.7024 35.1987 16.914C35.8674 15.11 36.8005 13.6404 37.998 12.5052C39.211 11.3544 40.5873 10.5457 42.1269 10.0791C43.6665 9.59703 45.2761 9.35599 46.9556 9.35599C48.5419 9.35599 50.0504 9.55816 51.4811 9.96249C52.9119 10.3513 54.1093 10.9967 55.0735 11.8987C56.0533 12.8006 56.7997 13.8892 57.3129 15.1645C57.8417 16.4241 58.1061 17.8315 58.1061 19.3867C58.1061 20.1176 58.0283 20.8719 57.8728 21.6494L40.7739 21.6728C40.7428 22.2482 40.7273 22.7069 40.7273 23.0491C40.7273 24.091 40.9061 25.0474 41.2638 25.9183C41.6215 26.7892 42.1425 27.5279 42.8267 28.1344C43.511 28.7409 44.3274 29.1919 45.2761 29.4874C46.2247 29.7673 47.1578 29.9073 48.0753 29.9073C49.1484 29.9073 50.307 29.7906 51.5511 29.5574C52.8108 29.3241 54.3037 28.9275 56.0299 28.3677ZM40.9605 18.9435L51.8777 18.9668C51.8777 18.2203 51.8544 17.6683 51.8077 17.3106C51.7611 16.9529 51.6522 16.5485 51.4811 16.0976C51.3256 15.631 51.1079 15.2267 50.828 14.8845C50.548 14.5269 50.2215 14.2314 49.8482 13.9981C49.475 13.7648 49.0395 13.586 48.5419 13.4616C48.0598 13.3372 47.5388 13.275 46.979 13.275C46.3258 13.275 45.6882 13.376 45.0661 13.5782C44.4596 13.7804 43.8998 14.0759 43.3866 14.4647C42.8734 14.8534 42.4535 15.2889 42.1269 15.771C41.8159 16.2531 41.5826 16.7196 41.4271 17.1706C41.2716 17.6061 41.1161 18.197 40.9605 18.9435Z" fill="white"/>
<path d="M61.5137 15.1411C61.7314 14.0214 61.8636 13.2361 61.9103 12.7851C61.9725 12.3341 62.0736 11.6498 62.2135 10.7323C64.3285 10.2346 66.1947 9.88474 67.8121 9.68257C69.4294 9.4804 70.9923 9.37931 72.5008 9.37931C74.2115 9.37931 75.7822 9.58148 77.2129 9.98582C78.6437 10.3746 79.7634 11.0044 80.5721 11.8753C81.3807 12.7462 81.7851 13.9981 81.7851 15.631C81.7851 16.5174 81.6607 18.7802 81.4118 22.4192C81.163 26.0427 81.0153 29.7906 80.9686 33.663C79.7867 33.6319 78.6981 33.6163 77.7028 33.6163C76.7542 33.6163 75.6422 33.6319 74.367 33.663C74.5692 31.7812 74.7325 29.604 74.8569 27.1313L75.1601 21.3229C74.5692 21.7116 74.1182 21.9838 73.8072 22.1393C73.4961 22.2948 73.1462 22.4426 72.7574 22.5825C72.3686 22.7069 71.6844 22.9091 70.7046 23.189C69.7249 23.4534 68.9395 23.6867 68.3486 23.8889C67.7576 24.091 67.2211 24.3243 66.739 24.5887C66.2725 24.8375 65.8759 25.1252 65.5493 25.4518C65.2227 25.7628 64.9817 26.0972 64.8262 26.4548C64.6862 26.797 64.6162 27.1702 64.6162 27.5746C64.6162 28.2277 64.8028 28.7953 65.1761 29.2774C65.5649 29.744 66.047 30.0706 66.6224 30.2572C67.1978 30.4438 67.8743 30.5371 68.6518 30.5371C69.1495 30.5371 69.6705 30.4982 70.2148 30.4205C70.7746 30.3427 71.5211 30.1483 72.4542 29.8373C72.1276 30.7237 71.7466 32.0456 71.3111 33.8029C70.207 33.9895 69.3283 34.1062 68.6752 34.1528C68.022 34.1995 67.4155 34.2228 66.8556 34.2228C64.8962 34.2228 63.2866 33.9584 62.0269 33.4297C60.7672 32.9009 59.8341 32.0612 59.2276 30.9103C58.6367 29.7595 58.3412 28.601 58.3412 27.4346C58.3412 26.7659 58.4578 26.1049 58.6911 25.4518C58.9244 24.7986 59.2665 24.1999 59.7175 23.6556C60.1685 23.1113 60.7517 22.5903 61.4671 22.0927C62.1824 21.5795 63.2166 21.0896 64.5696 20.623C65.9226 20.1409 67.711 19.6588 69.9348 19.1768C70.5258 19.0523 71.1401 18.9046 71.7777 18.7335C72.4153 18.5469 72.9207 18.3681 73.294 18.197C73.6827 18.0259 74.0171 17.8082 74.297 17.5438C74.577 17.2639 74.7791 16.9762 74.9035 16.6807C75.0435 16.3853 75.1135 16.082 75.1135 15.771C75.1135 15.1645 74.9113 14.6513 74.507 14.2314C74.1182 13.8115 73.605 13.5238 72.9674 13.3683C72.3453 13.1972 71.6533 13.1117 70.8913 13.1117C68.0609 13.1117 64.935 13.7882 61.5137 15.1411Z" fill="white"/>
<path d="M109.033 33.663C107.742 33.6319 106.739 33.6163 106.024 33.6163C105.246 33.6163 104.173 33.6319 102.805 33.663L103.015 29.604C102.33 30.4905 101.74 31.1747 101.242 31.6568C100.76 32.1389 100.153 32.5899 99.4223 33.0098C98.707 33.4141 97.9294 33.7174 97.0896 33.9196C96.2498 34.1217 95.3789 34.2228 94.477 34.2228C92.984 34.2228 91.5844 33.9507 90.278 33.4064C88.9717 32.8621 87.8598 32.1 86.9423 31.1203C86.0247 30.125 85.3482 28.9509 84.9128 27.5979C84.4773 26.2294 84.2596 24.8064 84.2596 23.329C84.2596 21.2918 84.6484 19.3089 85.426 17.3806C86.2036 15.4366 87.2688 13.8659 88.6218 12.6685C89.9748 11.471 91.5066 10.6234 93.2173 10.1258C94.9279 9.62814 96.763 9.37931 98.7225 9.37931C100.138 9.37931 101.74 9.5115 103.528 9.77588C103.637 7.75418 103.691 5.6314 103.691 3.40754V1.82129C105.153 1.85239 106.273 1.86794 107.05 1.86794C108.061 1.86794 109.196 1.85239 110.456 1.82129C110.114 5.77137 109.787 11.1522 109.476 17.9637C109.181 24.7597 109.033 29.9928 109.033 33.663ZM103.271 14.2081C102.105 13.897 100.985 13.7415 99.9122 13.7415C98.6836 13.7415 97.5095 13.9126 96.3898 14.2547C95.2701 14.5968 94.2748 15.18 93.4039 16.0042C92.5486 16.8285 91.8876 17.886 91.4211 19.1768C90.9545 20.4675 90.7213 21.7116 90.7213 22.9091C90.7213 24.1066 90.9312 25.203 91.3511 26.1982C91.7865 27.1935 92.4553 27.9789 93.3572 28.5543C94.2592 29.1297 95.2779 29.4174 96.4131 29.4174C97.2684 29.4174 98.046 29.2697 98.7458 28.9742C99.4457 28.6632 100.083 28.1966 100.659 27.5746C101.234 26.9369 101.716 26.1205 102.105 25.1252C102.509 24.1299 102.797 22.808 102.968 21.1596C103.077 19.9466 103.178 17.6294 103.271 14.2081Z" fill="white"/>
<path d="M109.991 44.3935C109.712 42.0608 109.486 40.3812 109.315 39.3548C110.808 40.0546 112.215 40.4045 113.537 40.4045C113.942 40.4045 114.354 40.3501 114.774 40.2412C115.193 40.1479 115.582 40.008 115.94 39.8214C116.173 39.6969 116.406 39.5181 116.64 39.2848C116.889 39.0516 117.223 38.6239 117.643 38.0018C118.063 37.3798 118.428 36.7655 118.739 36.159C118.988 35.6458 119.245 35.0004 119.509 34.2228L114.657 20.0165L111.111 9.93917C112.744 9.97027 113.918 9.98582 114.634 9.98582C115.458 9.98582 116.539 9.97027 117.876 9.93917C118.203 11.2299 118.506 12.3496 118.786 13.2983L121.002 20.623C121.686 22.878 122.176 24.5731 122.471 25.7084C122.658 26.4548 122.876 27.4424 123.125 28.6709C123.591 27.2557 123.996 26.1049 124.338 25.2185C124.944 23.6012 125.792 21.4395 126.88 18.7335L129.143 13.1583C129.547 12.163 129.96 11.09 130.379 9.93917C131.779 9.97027 132.844 9.98582 133.575 9.98582C134.244 9.98582 135.364 9.97027 136.934 9.93917L127.953 30.0706L124.058 38.9582C123.513 40.1091 122.992 41.0033 122.495 41.6409C122.09 42.1852 121.647 42.6517 121.165 43.0405C120.699 43.4137 120.201 43.7248 119.672 43.9736C119.004 44.2846 118.28 44.5335 117.503 44.7201C116.616 44.9067 115.722 45 114.82 45C114.307 45 113.592 44.9533 112.674 44.86C111.757 44.7667 110.862 44.6112 109.991 44.3935Z" fill="white"/>
<path d="M34.0076 0C12.406 10.3892 6.3056 20.7004 5.29388 44.8853C-4.29665 13.906 -0.861573 2.71528 34.0076 0Z" fill="#FF011A"/>
</svg>
