<svg width="88" height="48" viewBox="0 0 88 48" fill="none" xmlns="http://www.w3.org/2000/svg">
<path d="M54.8282 48.0001C75.2798 35.4982 80.316 24.6275 78.8987 0.462939C91.5459 30.3251 89.2497 41.8037 54.8282 48.0001Z" fill="#FF011A"/>
<path d="M14.0687 32.9953L13.5547 27.8551C15.0812 28.4782 16.374 28.9143 17.4332 29.1636C18.4924 29.3972 19.4659 29.514 20.3538 29.514C21.2416 29.514 21.9893 29.4128 22.5967 29.2103C23.2042 28.9922 23.6559 28.6807 23.9519 28.2757C24.2478 27.8551 24.3958 27.419 24.3958 26.9673C24.3958 26.7648 24.3724 26.5779 24.3257 26.4065C24.2946 26.2352 24.2245 26.0561 24.1154 25.8692C24.022 25.6822 23.9052 25.5109 23.765 25.3551C23.6404 25.1838 23.4612 24.9969 23.2276 24.7944C22.9939 24.5763 22.659 24.3037 22.2229 23.9766L20.9612 22.972C19.7463 22.0218 18.8195 21.2741 18.1809 20.729C17.5422 20.1838 17.0048 19.6308 16.5687 19.0701C16.1326 18.4938 15.7977 17.8941 15.564 17.271C15.346 16.6324 15.2369 15.986 15.2369 15.3318C15.2369 14.1947 15.5796 13.1121 16.265 12.0841C16.9659 11.0561 17.9784 10.3084 19.3024 9.84112C20.6263 9.35826 22.184 9.11682 23.9752 9.11682C26.0157 9.11682 28.3678 9.35826 31.0313 9.84112L31.3351 14.7243C29.5282 13.9922 27.7914 13.6262 26.1248 13.6262C25.2214 13.6262 24.427 13.7196 23.7416 13.9065C23.0718 14.0779 22.589 14.3505 22.293 14.7243C21.9971 15.0826 21.8491 15.4875 21.8491 15.9393C21.8491 16.2041 21.8958 16.4688 21.9893 16.7336C22.0827 16.9829 22.2463 17.2477 22.4799 17.528C22.7136 17.8084 22.9784 18.0732 23.2743 18.3224C23.5858 18.5717 24.2245 19.0623 25.1902 19.7944C26.1559 20.5265 26.9971 21.1885 27.7136 21.7804C28.4457 22.3723 29.0453 22.972 29.5126 23.5794C29.9799 24.1713 30.3382 24.81 30.5874 25.4953C30.8366 26.1807 30.9612 26.8738 30.9612 27.5748C30.9612 28.743 30.603 29.8255 29.8865 30.8224C29.17 31.8193 28.0874 32.5981 26.6388 33.1589C25.1902 33.7196 23.5703 34 21.779 34C20.8444 34 19.7073 33.9221 18.3678 33.7664C17.0282 33.6262 15.5952 33.3692 14.0687 32.9953Z" fill="white"/>
<path d="M54.9818 28.1355C54.7793 29.0545 54.4911 30.7056 54.1173 33.0888C52.4351 33.447 51.0176 33.6885 49.865 33.8131C48.7123 33.9377 47.5519 34 46.3837 34C44.3432 34 42.5129 33.7975 40.893 33.3925C39.2886 32.9875 37.879 32.2477 36.664 31.1729C35.4491 30.0826 34.5534 28.7508 33.9771 27.1776C33.4008 25.6044 33.1126 23.9533 33.1126 22.2243C33.1126 20.3084 33.4475 18.4548 34.1173 16.6636C34.7871 14.8567 35.7217 13.3847 36.921 12.2477C38.136 11.095 39.5145 10.285 41.0566 9.81776C42.5986 9.33489 44.2108 9.09346 45.893 9.09346C47.4818 9.09346 48.9927 9.29595 50.4257 9.70093C51.8587 10.0903 53.0581 10.7368 54.0238 11.6402C55.0052 12.5436 55.7528 13.634 56.2668 14.9112C56.7964 16.1729 57.0612 17.5826 57.0612 19.1402C57.0612 19.8723 56.9833 20.6277 56.8276 21.4065L39.7014 21.4299C39.6703 22.0062 39.6547 22.4657 39.6547 22.8084C39.6547 23.852 39.8338 24.81 40.1921 25.6822C40.5503 26.5545 41.0721 27.2944 41.7575 27.9019C42.4429 28.5093 43.2606 28.9611 44.2108 29.257C45.1609 29.5374 46.0955 29.6776 47.0145 29.6776C48.0893 29.6776 49.2497 29.5607 50.4958 29.3271C51.7575 29.0935 53.2528 28.6963 54.9818 28.1355ZM39.8883 18.6963L50.8229 18.7196C50.8229 17.972 50.7995 17.419 50.7528 17.0607C50.7061 16.7025 50.5971 16.2975 50.4257 15.8458C50.27 15.3785 50.0519 14.9735 49.7715 14.6308C49.4911 14.2726 49.164 13.9766 48.7902 13.743C48.4164 13.5093 47.9802 13.3302 47.4818 13.2056C46.9989 13.081 46.4771 13.0187 45.9164 13.0187C45.2622 13.0187 44.6235 13.1199 44.0005 13.3224C43.393 13.5249 42.8323 13.8209 42.3182 14.2103C41.8042 14.5997 41.3837 15.0358 41.0566 15.5187C40.745 16.0016 40.5114 16.4688 40.3556 16.9206C40.1999 17.3567 40.0441 17.9486 39.8883 18.6963Z" fill="white"/>
<path d="M73.2547 28.5561C73.0678 29.4128 72.7718 31.0016 72.3668 33.3224C71.0584 33.6184 70.0304 33.8053 69.2827 33.8832C68.5351 33.9611 67.8341 34 67.1799 34C66.0273 34 64.9914 33.891 64.0724 33.6729C63.169 33.4548 62.4214 33.0732 61.8295 32.528C61.2375 31.9673 60.8326 31.3209 60.6145 30.5888C60.412 29.8411 60.3108 29.0701 60.3108 28.2757C60.3108 28.0732 60.3186 27.8006 60.3341 27.4579C60.3497 27.1153 60.412 26.0093 60.521 24.1402L61.0584 14.4206H57.6939C57.7718 13.486 57.8419 11.9829 57.9042 9.91121H61.4323C61.5257 9.00779 61.6192 7.47352 61.7126 5.30841L64.4696 4.77103C65.046 4.66199 66.1597 4.40498 67.8108 4C67.7017 6.1028 67.6394 8.07321 67.6238 9.91121H73.5584C73.4494 12.014 73.3949 13.5171 73.3949 14.4206H67.4369C67.1098 20.7601 66.9463 24.4283 66.9463 25.4252C66.9463 26.391 67.0475 27.1386 67.25 27.6682C67.4681 28.1978 67.8108 28.5794 68.278 28.8131C68.7453 29.0467 69.2438 29.1636 69.7734 29.1636C70.1628 29.1636 70.5678 29.1324 70.9883 29.0701C71.4245 29.0078 72.1799 28.8364 73.2547 28.5561Z" fill="white"/>
<path d="M33.3357 0C11.7341 10.3892 5.63373 20.7004 4.62201 44.8853C-4.96852 13.906 -1.53345 2.71528 33.3357 0Z" fill="#FF011A"/>
</svg>
